<?xml version="1.0" encoding="UTF-8"?>
<svg version="1.1" xmlns="http://www.w3.org/2000/svg" width="1806" height="540">
<path d="M0 0 C1.00688873 0.00323273 1.00688873 0.00323273 2.03411865 0.00653076 C48.57285987 0.24472496 90.14045626 19.60628727 123.29345703 51.76904297 C127.13463 55.67195128 130.45607492 59.99310889 133.8125 64.3125 C134.8278754 65.50467018 135.84765745 66.69312681 136.875 67.875 C138.8125 70.3125 138.8125 70.3125 138.8125 72.3125 C139.53566406 72.15136719 140.25882812 71.99023438 141.00390625 71.82421875 C177.495705 65.17550437 221.50598814 82.24243173 251.09375 102.56640625 C277.47826004 121.97290772 297.99427722 145.54899689 311.8125 175.3125 C312.61300781 176.98699219 312.61300781 176.98699219 313.4296875 178.6953125 C331.92041374 219.22161923 332.71600082 268.58459434 317.5 310.25 C300.50932101 354.78497832 267.39128049 391.56946226 223.94873047 411.63525391 C181.1482769 430.28407461 131.35057488 433.18165861 87.40429688 416.37011719 C73.59385338 410.73458203 59.73999859 404.3522884 47.8125 395.3125 C46.29462891 394.21421875 46.29462891 394.21421875 44.74609375 393.09375 C31.16918656 383.1281602 19.26618204 371.49399469 8.8125 358.3125 C8.14992188 357.48105469 7.48734375 356.64960938 6.8046875 355.79296875 C2.8125 350.64026163 2.8125 350.64026163 2.8125 348.3125 C-2.5203838 352.85967135 -7.55831213 357.58488932 -12.44140625 362.609375 C-13.80487377 363.99524908 -15.16882183 365.38065052 -16.53320312 366.765625 C-18.63491448 368.90413153 -20.7334071 371.04543235 -22.82348633 373.1953125 C-52.58313272 403.76213158 -88.77135335 420.486233 -131.6875 421.5625 C-173.36105731 420.51739511 -210.93174953 404.59905096 -239.97900391 374.49975586 C-264.14020979 348.69031362 -277.69648789 314.49106701 -279.1875 279.3125 C-279.22875 278.47332031 -279.27 277.63414062 -279.3125 276.76953125 C-280.28345314 237.62798297 -264.9045994 200.53354209 -238.1875 172.3125 C-237.36765625 171.42820313 -236.5478125 170.54390625 -235.703125 169.6328125 C-218.02513176 151.17029294 -194.04024434 137.42584502 -169.1875 131.3125 C-167.8675 131.3125 -166.5475 131.3125 -165.1875 131.3125 C-165.05794922 130.49072266 -165.05794922 130.49072266 -164.92578125 129.65234375 C-160.29116142 103.50288325 -146.54557038 79.11448642 -129.1875 59.3125 C-128.49398437 58.4978125 -127.80046875 57.683125 -127.0859375 56.84375 C-95.16825465 20.1674308 -48.45164004 -0.21436069 0 0 Z M-95.20605469 80.90893555 C-105.62133816 91.77417107 -122.1875 111.7591156 -122.1875 127.3125 C-121.59549805 127.40225098 -121.00349609 127.49200195 -120.39355469 127.58447266 C-83.30025164 133.32357137 -54.90413825 145.83678144 -27.1875 171.3125 C-22.9146658 169.92173064 -20.50497606 167.97354611 -17.38671875 164.76953125 C-16.49146484 163.86009766 -15.59621094 162.95066406 -14.67382812 162.01367188 C-13.74043017 161.05122254 -12.80748976 160.08832928 -11.875 159.125 C-1.46121672 148.46099154 -1.46121672 148.46099154 2.75390625 144.87109375 C7.75521982 140.60007448 12.27426912 135.8482465 16.87258911 131.15509033 C25.69070677 122.18100175 34.46751552 113.53256834 44.8125 106.3125 C45.39725098 105.89403809 45.98200195 105.47557617 46.58447266 105.04443359 C60.95016416 94.79302128 76.45961012 87.78889203 92.8125 81.3125 C93.13724293 78.03511542 93.13724293 78.03511542 90.25 75.3125 C37.21093839 24.82953775 -44.86936116 30.13447122 -95.20605469 80.90893555 Z M43.23803711 160.92285156 C40.21787798 163.98803837 37.15308099 166.92699637 33.890625 169.734375 C29.47370815 173.5450065 25.3981093 177.65247159 21.3125 181.8125 C16.6191805 186.59130802 11.87258022 191.18405094 6.79492188 195.55273438 C3.30978173 198.64644006 0.07442574 201.98686478 -3.1875 205.3125 C-7.70725312 209.92052955 -12.29682227 214.32267797 -17.1875 218.53515625 C-20.67721278 221.63636585 -23.9196662 224.98084132 -27.1875 228.3125 C-31.7606107 232.97492927 -36.38646902 237.46494507 -41.36474609 241.69628906 C-43.28519082 243.39912111 -45.04795223 245.19961282 -46.8125 247.0625 C-51.92431425 252.2444764 -57.68071675 256.58279427 -63.45751953 260.98828125 C-65.01127374 262.17760708 -66.55147561 263.3845885 -68.08984375 264.59375 C-74.11958526 269.26193698 -80.36784112 273.43034616 -86.8125 277.5 C-87.63596924 278.02271484 -88.45943848 278.54542969 -89.30786133 279.08398438 C-93.47755709 281.7051997 -97.64948231 284.05670378 -102.0625 286.25 C-107.19545721 289.24274495 -108.28254461 293.6745427 -110.0546875 299.12109375 C-111.64842316 303.61103179 -113.972885 306.84326203 -117.1875 310.3125 C-117.93773437 311.12460937 -117.93773437 311.12460937 -118.703125 311.953125 C-126.16339268 319.12367354 -135.94616975 321.9799298 -146.08984375 322.37890625 C-156.74734452 322.15043524 -166.69386249 318.38269402 -174.59375 311.09765625 C-182.68833856 302.03092348 -185.80547618 291.44827827 -185.46875 279.48046875 C-184.5529317 269.16479317 -180.0581361 259.69955068 -172.5625 252.5 C-163.76131133 245.34057153 -152.38670498 242.34553568 -141.1875 243.3125 C-134.46911136 244.54371985 -128.98044369 246.63536094 -123.35546875 250.51953125 C-120.01186328 251.74250766 -118.40368243 250.76707415 -115.1875 249.3125 C-112.24605809 247.60268367 -109.43482617 245.72945906 -106.625 243.8125 C-105.83287109 243.27713623 -105.04074219 242.74177246 -104.22460938 242.19018555 C-94.43957016 235.51883757 -85.16572113 228.42014985 -76.4453125 220.38671875 C-74.41586537 218.52229587 -72.34715844 216.72475446 -70.25 214.9375 C-64.96092593 210.34349932 -60.09744353 205.30367421 -55.1875 200.3125 C-69.39382558 182.36766768 -92.15404041 171.95054101 -114.2734375 167.72265625 C-146.48764124 164.34691634 -175.06872211 170.91632205 -200.32788086 191.35522461 C-222.64976124 209.97471689 -235.83765668 235.52280885 -239.1875 264.3125 C-241.021723 294.56998647 -231.93089037 322.38758912 -211.875 345.375 C-192.36144574 366.4229534 -166.13111226 380.38232896 -137.1015625 381.515625 C-110.14667416 382.00707982 -83.56390255 374.5760594 -63.1875 356.3125 C-62.10275391 355.38824219 -62.10275391 355.38824219 -60.99609375 354.4453125 C-55.08364004 349.30317848 -49.5503579 343.77674414 -44 338.25 C-43.23945313 337.49412598 -42.47890625 336.73825195 -41.6953125 335.95947266 C-40.95667969 335.21874512 -40.21804688 334.47801758 -39.45703125 333.71484375 C-38.47633667 332.73245728 -38.47633667 332.73245728 -37.47583008 331.73022461 C-35.59756632 329.74575368 -33.81612206 327.72806556 -32.03759766 325.65600586 C-27.69904732 320.67008011 -23.01814687 316.05488299 -18.31640625 311.4140625 C-16.90758913 310.01465191 -15.49877759 308.61523564 -14.09030819 307.21547508 C-10.64717005 303.79516562 -7.19842743 300.3805225 -3.74731445 296.96826172 C-1.79669463 295.03918722 0.15127422 293.10750604 2.09645081 291.17294312 C3.92290918 289.35686058 5.75348873 287.54491185 7.58848572 285.73745728 C8.40676346 284.92255829 9.2250412 284.1076593 10.06811523 283.26806641 C10.79312729 282.55051178 11.51813934 281.83295715 12.26512146 281.09365845 C14.03110917 279.45410126 14.03110917 279.45410126 13.8125 277.3125 C14.37582031 277.08175781 14.93914062 276.85101563 15.51953125 276.61328125 C18.407937 274.97471376 20.23386886 272.9297764 22.5 270.5 C40.72549327 251.71898541 66.65045985 235.24754355 91.92553711 228.25024414 C99.19898953 226.22649827 99.19898953 226.22649827 104.32421875 220.96484375 C105.72269778 218.39921798 106.89787802 215.76197729 108.05859375 213.08203125 C110.48299818 207.51079179 114.49722836 203.50131679 118.8125 199.3125 C119.62074219 198.47332031 119.62074219 198.47332031 120.4453125 197.6171875 C131.68979737 186.82474222 147.81692754 182.79035628 162.95239258 182.89038086 C180.11130649 183.44086669 193.77866309 190.32118548 205.8125 202.3125 C206.37710937 202.85390625 206.94171875 203.3953125 207.5234375 203.953125 C217.71788452 214.63302188 221.72916924 229.83210222 222.25 244.1875 C221.78945842 261.32348456 215.40294555 276.48020916 203.4765625 288.875 C191.30154265 300.0146076 175.0467176 306.05065811 158.55078125 305.55078125 C141.11527162 304.03356857 125.55861707 297.63000397 113.8125 284.3125 C111.21200948 280.77700165 108.95838898 277.13778036 106.8125 273.3125 C106.379375 272.57 105.94625 271.8275 105.5 271.0625 C104.58651877 269.48928233 103.69597804 267.90276047 102.8125 266.3125 C98.26145072 266.94023094 94.48408781 268.74568647 90.4375 270.8125 C89.38792114 271.34653442 89.38792114 271.34653442 88.31713867 271.89135742 C75.58132806 278.45890826 64.45583742 285.70574272 53.8125 295.3125 C52.78308414 296.22065554 51.75314013 297.12821278 50.72265625 298.03515625 C43.59465203 304.37483078 37.13517895 311.18081686 30.8125 318.3125 C44.41356014 346.71692393 73.03377428 368.03056183 101.8984375 378.96875 C137.44361279 391.45220105 174.73966011 390.11577168 208.97265625 374.18359375 C242.19044125 358.20531296 268.07896618 330.01631885 280.55664062 295.19018555 C292.82324124 258.63207061 289.65644995 220.7201518 272.8125 186.3125 C256.84064309 154.3517858 227.89530401 129.77994362 194.125 118.4375 C136.66179493 99.89813201 84.19336309 119.16190094 43.23803711 160.92285156 Z M144 229.125 C139.47447189 235.71934097 137.72957136 241.3959182 138.8125 249.3125 C140.72541193 256.0016763 145.2253716 260.38846624 150.8125 264.3125 C156.64486598 267.10717536 162.76923581 267.16321818 168.875 265.25 C174.78485678 262.77204824 178.56589293 258.44379597 181.75 253 C184.03307025 245.07640324 183.44472772 238.83811315 179.4453125 231.58203125 C176.20538751 227.07869054 172.05327977 224.05942659 166.8125 222.3125 C157.37143673 221.45930762 150.79968511 222.32531489 144 229.125 Z " fill="#0076FF" transform="translate(310.1875,59.6875)"/>
<path d="M0 0 C64.02 0 128.04 0 194 0 C194 89.76 194 179.52 194 272 C204.56 272 215.12 272 226 272 C226 285.86 226 299.72 226 314 C219.34646293 314.09219682 212.69517252 314.17172722 206.04150391 314.21972656 C203.78166157 314.23975089 201.52187045 314.26697862 199.26220703 314.30175781 C196.00019638 314.35068078 192.73887513 314.37306132 189.4765625 314.390625 C187.97906967 314.42159271 187.97906967 314.42159271 186.45132446 314.45318604 C175.67448414 314.45657679 167.97204251 310.89365358 160.203125 303.515625 C154.33594073 296.81621602 151.83617564 289.48208466 151.90234375 280.70703125 C151.90446617 279.64798836 151.90446617 279.64798836 151.90663147 278.56755066 C151.91222236 276.31582374 151.92477312 274.06419679 151.9375 271.8125 C151.94251618 270.28450665 151.94707888 268.75651173 151.95117188 267.22851562 C151.9621888 263.48563865 151.97944713 259.74283627 152 256 C151.14245117 256.39380859 150.28490234 256.78761719 149.40136719 257.19335938 C146.21346164 258.65300727 143.02263392 260.10584716 139.82958984 261.55419922 C138.44912801 262.18203546 137.06988029 262.81254849 135.69189453 263.44580078 C133.70920089 264.35638178 131.72231806 265.25719793 129.734375 266.15625 C128.54038086 266.70087891 127.34638672 267.24550781 126.11621094 267.80664062 C123 269 123 269 119 269 C118.54149658 267.99211426 118.08299316 266.98422852 117.6105957 265.94580078 C115.88849959 262.161585 114.16395703 258.37848817 112.4387207 254.59570312 C111.69620391 252.96676968 110.954327 251.33754438 110.21313477 249.70800781 C109.13991887 247.34881442 108.06430916 244.99072444 106.98828125 242.6328125 C106.66410721 241.91884308 106.33993317 241.20487366 106.00593567 240.4692688 C103.46641719 234.91351009 100.75840255 229.45006421 98 224 C97.64961166 224.77927605 97.64961166 224.77927605 97.29214478 225.57429504 C94.86205144 230.97750057 92.42821386 236.37900787 89.9921875 241.77954102 C89.08334606 243.79570838 88.17546268 245.8123079 87.26855469 247.8293457 C85.96540474 250.7272147 84.65882597 253.62351602 83.3515625 256.51953125 C82.94628326 257.42274612 82.54100403 258.325961 82.1234436 259.25654602 C81.74320038 260.09719101 81.36295715 260.937836 80.97119141 261.80395508 C80.63809967 262.54341873 80.30500793 263.28288239 79.96182251 264.04475403 C79 266 79 266 77 269 C72.69661435 268.3436716 69.12325387 266.85328259 65.16796875 265.05859375 C64.00289795 264.53322021 62.83782715 264.00784668 61.63745117 263.46655273 C60.16896729 262.79696533 58.7004834 262.12737793 57.1875 261.4375 C52.505625 259.313125 47.82375 257.18875 43 255 C42.67 274.47 42.34 293.94 42 314 C28.14 314 14.28 314 0 314 C0 210.38 0 106.76 0 0 Z M42 42 C42 56.52 42 71.04 42 86 C45.568125 84.453125 49.13625 82.90625 52.8125 81.3125 C53.91311768 80.83594971 55.01373535 80.35939941 56.14770508 79.8684082 C62.79732899 76.98125037 69.41050963 74.02184381 76 71 C84.00917617 86.34677545 90.94032097 102.2020336 98 118 C99.50213303 115.74680046 100.62759529 113.80122933 101.73999023 111.37402344 C102.07050888 110.65607605 102.40102753 109.93812866 102.74156189 109.19842529 C103.0936824 108.4265387 103.44580292 107.6546521 103.80859375 106.859375 C104.1759816 106.0589679 104.54336945 105.25856079 104.92189026 104.43389893 C105.69888453 102.73984922 106.47464656 101.04523387 107.24926758 99.35009766 C108.42719951 96.77253959 109.60875597 94.19666923 110.79101562 91.62109375 C111.54708952 89.97145247 112.30295554 88.3217159 113.05859375 86.671875 C113.58373817 85.52619049 113.58373817 85.52619049 114.11949158 84.35736084 C116.14174867 79.92972713 118.10055139 75.48173699 120 71 C120.64960693 71.28721924 121.29921387 71.57443848 121.96850586 71.87036133 C124.95634856 73.18858191 127.94688907 74.50057245 130.9375 75.8125 C132.46987305 76.49022461 132.46987305 76.49022461 134.03320312 77.18164062 C135.04189453 77.62314453 136.05058594 78.06464844 137.08984375 78.51953125 C138.00628662 78.92276611 138.92272949 79.32600098 139.86694336 79.74145508 C143.84427825 81.33914552 147.93372076 82.64457359 152 84 C152 70.14 152 56.28 152 42 C115.7 42 79.4 42 42 42 Z M42 98 C42 145.52 42 193.04 42 242 C44.2779833 239.7220167 45.10525891 237.8124035 46.40625 234.8671875 C47.13908203 233.22121582 47.13908203 233.22121582 47.88671875 231.54199219 C48.42507978 230.31992587 48.96282114 229.09758642 49.5 227.875 C50.6539888 225.25160106 51.81008745 222.62915079 52.96875 220.0078125 C53.2793335 219.30446777 53.58991699 218.60112305 53.90991211 217.87646484 C56.10006252 212.94658185 58.3731401 208.06096312 60.68884277 203.18887329 C62.39039813 199.60380083 64.06945762 196.00838343 65.74731445 192.41217041 C66.5792986 190.64406223 67.42153506 188.88074042 68.27416992 187.12249756 C69.48098884 184.6300232 70.64980676 182.12267245 71.8125 179.609375 C72.18048706 178.87282684 72.54847412 178.13627869 72.9276123 177.37741089 C74.79368518 173.23964578 75.27628406 170.7168277 73.86669922 166.3359375 C73.27358283 164.87843444 72.65319684 163.43158517 72 162 C71.34281982 160.44974121 71.34281982 160.44974121 70.67236328 158.86816406 C70.22618652 157.92682617 69.78000977 156.98548828 69.3203125 156.015625 C68.55436768 154.38596802 68.55436768 154.38596802 67.77294922 152.72338867 C67.22912598 151.57717041 66.68530273 150.43095215 66.125 149.25 C64.96027887 146.77366013 63.80006519 144.29522243 62.640625 141.81640625 C62.34312347 141.18112503 62.04562195 140.54584381 61.73910522 139.89131165 C58.37480825 132.69100232 55.11895445 125.4426406 51.875 118.1875 C51.59964417 117.5725769 51.32428833 116.95765381 51.04058838 116.32409668 C48.31475709 110.23520024 45.60087234 104.14343983 43 98 C42.67 98 42.34 98 42 98 Z M151 104 C149.73144212 106.79281984 148.46322767 109.58579461 147.1953125 112.37890625 C146.79993286 113.24974854 146.40455322 114.12059082 145.99719238 115.01782227 C143.82630239 119.80231186 141.66099141 124.58922488 139.50537109 129.38061523 C138.63902741 131.30584033 137.7726539 133.231052 136.90625 135.15625 C136.47962067 136.10456192 136.05299133 137.05287384 135.61343384 138.02992249 C133.26222776 143.24372723 130.8665533 148.43057829 128.40625 153.59375 C127.92269043 154.63200928 127.43913086 155.67026855 126.94091797 156.73999023 C126.09340544 158.55781814 125.22416629 160.36575263 124.32861328 162.16040039 C121.88329309 167.4990425 122.05024749 170.14030713 124.0295105 175.56404114 C125.63746088 179.60004666 127.38767188 183.55741092 129.203125 187.50390625 C129.6040033 188.38545883 130.00488159 189.26701141 130.41790771 190.17527771 C131.69103483 192.97297285 132.97021589 195.76784468 134.25 198.5625 C135.92370107 202.22963765 137.59493364 205.89789659 139.265625 209.56640625 C139.66922241 210.45155914 140.07281982 211.33671204 140.48864746 212.24868774 C144.07545828 220.1299543 147.5610501 228.05325648 151 236 C151.33 236 151.66 236 152 236 C152 192.44 152 148.88 152 104 C151.67 104 151.34 104 151 104 Z " fill="#000000" transform="translate(1211,132)"/>
<path d="M0 0 C16.76583813 15.33581076 29.47825506 34.49081517 39 55 C39.53367187 56.11632812 40.06734375 57.23265625 40.6171875 58.3828125 C59.10791374 98.90911923 59.90350082 148.27209434 44.6875 189.9375 C27.69682101 234.47247832 -5.42121951 271.25696226 -48.86376953 291.32275391 C-91.6642231 309.97157461 -141.46192512 312.86915861 -185.40820312 296.05761719 C-199.21864662 290.42208203 -213.07250141 284.0397884 -225 275 C-226.51787109 273.90171875 -226.51787109 273.90171875 -228.06640625 272.78125 C-244.96637267 260.37650047 -259.4303857 245.49262503 -271 228 C-266.07715135 222.0306274 -260.72409764 216.53790055 -255.2578125 211.07250977 C-253.73407487 209.54655166 -252.2185557 208.01271855 -250.703125 206.47851562 C-249.7348633 205.50732543 -248.76613071 204.53660442 -247.796875 203.56640625 C-246.92385742 202.68927979 -246.05083984 201.81215332 -245.15136719 200.90844727 C-243 199 -243 199 -241 199 C-239.74540092 200.7239455 -238.57267907 202.50767995 -237.4375 204.3125 C-216.75281659 236.00917314 -185.57825518 255.64044899 -149 264 C-113.79263857 271.16774341 -75.84768461 262.66655285 -46 243 C-14.89448468 221.52445914 5.52023043 189.51004095 12.45703125 152.4296875 C18.21524538 116.05765871 10.1473715 78.56498708 -11.4609375 48.5078125 C-33.76764645 18.59900379 -66.05398572 -1.14270505 -103 -7 C-138.61251568 -11.94880797 -175.3109523 -3.04415381 -204.3671875 18.1953125 C-213.53254552 25.14486968 -221.53711759 33.41490513 -229.57446289 41.61035156 C-232.59462202 44.67553837 -235.65941901 47.61449637 -238.921875 50.421875 C-243.33879185 54.2325065 -247.4143907 58.33997159 -251.5 62.5 C-256.1933195 67.27880802 -260.93991978 71.87155094 -266.01757812 76.24023438 C-269.50271827 79.33394006 -272.73807426 82.67436478 -276 86 C-280.51975312 90.60802955 -285.10932227 95.01017797 -290 99.22265625 C-293.48971278 102.32386585 -296.7321662 105.66834132 -300 109 C-304.5731107 113.66242927 -309.19896902 118.15244507 -314.17724609 122.38378906 C-316.09769082 124.08662111 -317.86045223 125.88711282 -319.625 127.75 C-324.73681425 132.9319764 -330.49321675 137.27029427 -336.27001953 141.67578125 C-337.82377374 142.86510708 -339.36397561 144.0720885 -340.90234375 145.28125 C-350.41959463 152.64944423 -360.71581025 159.84531517 -371.48999023 165.2487793 C-376.45612734 167.70883339 -376.45612734 167.70883339 -379.76171875 172.05078125 C-380.06722656 173.12714844 -380.37273437 174.20351563 -380.6875 175.3125 C-384.06457732 185.50116525 -390.24091811 193.24710948 -399.72265625 198.51171875 C-410.02316774 203.24805407 -421.11865918 204.55634066 -432 201 C-443.18451647 196.6115714 -450.76470398 189.82939737 -456 179 C-460.17333347 169.29896823 -460.52540142 158.38332257 -457.03125 148.40234375 C-452.36647255 137.53553265 -445.77955647 129.81896811 -434.8125 125.0625 C-424.07028722 120.82026068 -413.77276569 120.98935996 -403 125 C-400.6406147 126.31118116 -398.38883118 127.67347635 -396.16796875 129.20703125 C-392.82436328 130.43000766 -391.21618243 129.45457415 -388 128 C-385.05855809 126.29018367 -382.24732617 124.41695906 -379.4375 122.5 C-378.24930664 121.69695435 -378.24930664 121.69695435 -377.03710938 120.87768555 C-367.25207016 114.20633757 -357.97822113 107.10764985 -349.2578125 99.07421875 C-347.22836537 97.20979587 -345.15965844 95.41225446 -343.0625 93.625 C-338.87380029 89.99142916 -335.04226296 86.03293263 -331.19921875 82.0390625 C-328.60069794 79.46126636 -325.800871 77.21546956 -322.9375 74.9375 C-317.2043022 70.26525015 -311.98578048 65.22720841 -306.80078125 59.9609375 C-305.39491352 58.54712023 -303.98904308 57.13330564 -302.5830183 55.71964455 C-300.6448288 53.76847454 -298.71129641 51.81272322 -296.77783203 49.85687256 C-293.38299066 46.42371054 -289.98312105 42.99554506 -286.57963562 39.57095337 C-284.77699655 37.75620861 -282.97703517 35.93879857 -281.18025208 34.11825562 C-276.84829785 29.75199951 -272.44705075 25.56553137 -267.78074646 21.55911255 C-265.20757761 19.30620348 -262.84639488 16.90495498 -260.4609375 14.453125 C-259.46590393 13.43783284 -258.47036196 12.42303873 -257.47436523 11.40869141 C-256.9679953 10.89187805 -256.46162537 10.3750647 -255.93991089 9.84259033 C-247.12179323 0.86850175 -238.34498448 -7.77993166 -228 -15 C-227.41524902 -15.41846191 -226.83049805 -15.83692383 -226.22802734 -16.26806641 C-216.96093852 -22.88109638 -207.34244057 -28.26199701 -197 -33 C-196.02305176 -33.45802002 -196.02305176 -33.45802002 -195.02636719 -33.92529297 C-128.83425153 -64.6280747 -52.86890425 -47.21905373 0 0 Z " fill="#00A5FF" transform="translate(583,180)"/>
<path d="M0 0 C100.32 0 200.64 0 304 0 C304 13.86 304 27.72 304 42 C233.38 42 162.76 42 90 42 C88.68 48.27 87.36 54.54 86 61 C85.19980029 64.49496097 84.39172113 67.98062508 83.54223633 71.46289062 C83.32867996 72.34842117 83.1151236 73.23395172 82.89509583 74.14631653 C82.21011612 76.98362415 81.52119725 79.8199566 80.83203125 82.65625 C80.34668974 84.66209959 79.86156108 86.66800069 79.37663269 88.6739502 C78.37074252 92.8323722 77.36300842 96.99034107 76.35375977 101.14794922 C75.05971102 106.47902717 73.76935462 111.81099042 72.48021412 117.14325714 C71.48359006 121.26464373 70.48559755 125.3856979 69.4871273 129.50663757 C69.01037424 131.47459177 68.5339228 133.44261906 68.05777931 135.41072083 C67.39636164 138.1432756 66.73323145 140.87540886 66.06958008 143.60742188 C65.87374329 144.4177034 65.67790649 145.22798492 65.47613525 146.06282043 C64.74082115 149.08355643 63.98364636 152.04906093 63 155 C121.74 155 180.48 155 241 155 C241 127.94 241 100.88 241 73 C254.86 73 268.72 73 283 73 C283 113.92 283 154.84 283 197 C192.58 197 102.16 197 9 197 C10.35002661 189.57485367 11.8000625 182.29541419 13.57861328 174.9777832 C13.8294014 173.93517838 14.08018951 172.89257355 14.33857727 171.81837463 C15.16283123 168.39511446 15.99148998 164.97293792 16.8203125 161.55078125 C17.40386699 159.13215114 17.98718572 156.71346413 18.57028198 154.29472351 C19.79398245 149.22149435 21.01972252 144.148764 22.24707031 139.07641602 C23.79643369 132.67305801 25.34202207 126.26879696 26.88624954 119.86419868 C33.15159358 93.88220028 39.46217084 67.91491135 46 42 C30.82 42 15.64 42 0 42 C0 28.14 0 14.28 0 0 Z " fill="#000000" transform="translate(1459,246)"/>
<path d="M0 0 C13.86 0 27.72 0 42 0 C42 10.56 42 21.12 42 32 C55.53 32 69.06 32 83 32 C83 45.86 83 59.72 83 74 C69.47 74 55.94 74 42 74 C42 82.58 42 91.16 42 100 C54.87 100 67.74 100 81 100 C81 114.19 81 128.38 81 143 C68.13 143 55.26 143 42 143 C42 200.42 42 257.84 42 317 C28.14 317 14.28 317 0 317 C0 236.81 0 156.62 0 74 C-27.72 74 -55.44 74 -84 74 C-84 60.14 -84 46.28 -84 32 C-56.28 32 -28.56 32 0 32 C0 21.44 0 10.88 0 0 Z " fill="#000000" transform="translate(771,129)"/>
<path d="M0 0 C14.19 0 28.38 0 43 0 C43 10.56 43 21.12 43 32 C53.23 32 63.46 32 74 32 C74 45.86 74 59.72 74 74 C63.77 74 53.54 74 43 74 C43 82.58 43 91.16 43 100 C52.9 100 62.8 100 73 100 C73 114.19 73 128.38 73 143 C63.1 143 53.2 143 43 143 C43 200.42 43 257.84 43 317 C28.81 317 14.62 317 0 317 C0 236.81 0 156.62 0 74 C-22.11 74 -44.22 74 -67 74 C-67 60.14 -67 46.28 -67 32 C-44.89 32 -22.78 32 0 32 C0 21.44 0 10.88 0 0 Z " fill="#000000" transform="translate(1132,129)"/>
<path d="M0 0 C13.86 0 27.72 0 42 0 C42 9.9 42 19.8 42 30 C63.78 30 85.56 30 108 30 C108 43.86 108 57.72 108 72 C86.22 72 64.44 72 42 72 C42 152.19 42 232.38 42 315 C28.14 315 14.28 315 0 315 C0 234.81 0 154.62 0 72 C-16.5 72 -33 72 -50 72 C-50 58.14 -50 44.28 -50 30 C-33.5 30 -17 30 0 30 C0 20.1 0 10.2 0 0 Z " fill="#000000" transform="translate(916,131)"/>
<path d="M0 0 C86.46 0 172.92 0 262 0 C262 13.86 262 27.72 262 42 C175.54 42 89.08 42 0 42 C0 28.14 0 14.28 0 0 Z " fill="#000000" transform="translate(1483,143)"/>
<path d="M0 0 C14.19 0 28.38 0 43 0 C43.02578125 3.84140625 43.0515625 7.6828125 43.078125 11.640625 C43.65597106 76.92395487 51.17362153 139.78302423 81.64794922 198.6328125 C84.22301061 203.72820697 85.60168257 207.27229446 85 213 C83.70449219 212.96777344 82.40898438 212.93554688 81.07421875 212.90234375 C67.05854992 212.88244455 57.14111591 216.13159728 45 223 C12.74757564 160.92759669 -0.32716281 93.51627542 -0.0625 23.875 C-0.05747061 21.54817806 -0.05291027 19.22135505 -0.04882812 16.89453125 C-0.03880756 11.26297218 -0.01921307 5.63156472 0 0 Z " fill="#000000" transform="translate(969,225)"/>
<path d="M0 0 C13.86 0 27.72 0 42 0 C42.06372492 7.68947338 42.12371863 15.37793551 42.15525055 23.06744385 C42.17079313 26.65185374 42.19137283 30.23603481 42.22631836 33.8203125 C42.84927581 99.55589402 28.11748245 164.42657355 -2 223 C-6.40357291 221.71130734 -9.68492564 219.94769316 -13.5 217.4375 C-22.65737427 212.29913632 -32.73782092 212.89084258 -43 213 C-43.27807903 208.3401347 -42.60077424 205.48677474 -40.47265625 201.3515625 C-39.66187622 199.73882446 -39.66187622 199.73882446 -38.8347168 198.09350586 C-38.24988525 196.94889893 -37.66505371 195.80429199 -37.0625 194.625 C-6.29200057 132.84003181 -0.98284329 67.8161869 0 0 Z " fill="#000000" transform="translate(716,225)"/>
<path d="M0 0 C14.19 0 28.38 0 43 0 C43 63.36 43 126.72 43 192 C28.81 192 14.62 192 0 192 C0 128.64 0 65.28 0 0 Z " fill="#000000" transform="translate(1080,225)"/>
<path d="M0 0 C13.86 0 27.72 0 42 0 C42 63.36 42 126.72 42 192 C28.14 192 14.28 192 0 192 C0 128.64 0 65.28 0 0 Z " fill="#000000" transform="translate(867,225)"/>
</svg>
